<svg width="23" height="23" viewBox="0 0 23 23" fill="none" xmlns="http://www.w3.org/2000/svg">
<path d="M5.6604 9.43409V7.54728C5.6604 4.4246 6.60381 1.88684 11.3208 1.88684C16.0379 1.88684 16.9813 4.4246 16.9813 7.54728V9.43409" stroke="black" stroke-opacity="0.7" stroke-width="1.41511" stroke-linecap="round" stroke-linejoin="round"/>
<path d="M11.3209 17.453C12.6235 17.453 13.6794 16.3971 13.6794 15.0945C13.6794 13.7919 12.6235 12.736 11.3209 12.736C10.0183 12.736 8.9624 13.7919 8.9624 15.0945C8.9624 16.3971 10.0183 17.453 11.3209 17.453Z" stroke="black" stroke-opacity="0.7" stroke-width="1.41511" stroke-linecap="round" stroke-linejoin="round"/>
<path d="M16.0379 20.755H6.60387C2.83025 20.755 1.88684 19.8116 1.88684 16.0379V14.1511C1.88684 10.3775 2.83025 9.43408 6.60387 9.43408H16.0379C19.8116 9.43408 20.755 10.3775 20.755 14.1511V16.0379C20.755 19.8116 19.8116 20.755 16.0379 20.755Z" stroke="black" stroke-opacity="0.7" stroke-width="1.41511" stroke-linecap="round" stroke-linejoin="round"/>
</svg>
